<svg width="64" height="64" viewBox="0 0 64 64" fill="none" xmlns="http://www.w3.org/2000/svg">
<path d="M62 32C62 18.9 53.7 7.79995 42 3.69995V60.2999C53.7 56.1999 62 45.1 62 32Z" fill="#ED4C5C"/>
<path d="M2 32C2 45.1 10.4 56.1999 22 60.2999V3.69995C10.4 7.79995 2 18.9 2 32Z" fill="#75A843"/>
<path d="M42 3.7C38.9 2.6 35.5 2 32 2C28.5 2 25.1 2.6 22 3.7V60.3C25.1 61.4 28.5 62 32 62C35.5 62 38.9 61.4 42 60.3V3.7Z" fill="white"/>
<path d="M40.7001 31.7C40.6001 31.4 40.5001 31.8 40.5001 31.9C40.5001 31.6 40.4001 31.4 40.2001 31.1C39.9001 31.4 39.8001 31.8 39.8001 32.2C39.7001 31.9 39.6001 31.6 39.3001 31.5C39.5001 31.8 39.4001 32 39.4001 32.3C39.4001 32.7 39.7001 33 39.7001 33.4C39.7001 33.8 39.5001 34.1 39.2001 34.4V34.1C38.2001 34.5 38.4001 35 38.4001 35.9C38.4001 36.8 37.9001 36.6 37.3001 37.1C37.4001 36.9 37.4001 36.6 37.3001 36.4C37.3001 37 36.5001 37 36.4001 37.5C36.3001 37.7 36.4001 38.1 36.1001 38.2C35.9001 38.3 35.6001 38.5 35.6001 38.7C35.4001 38.6 35.2001 38.6 34.9001 38.6C35.0001 38.5 35.1001 38.5 35.2001 38.4C34.2001 37.9 33.9001 39 33.0001 39.1C32.7001 39.1 32.0001 38.7 32.0001 39.1C32.9001 39.1 33.3001 39.9 34.0001 39.9C34.6001 39.9 35.1001 39.4 35.7001 39.4C35.6001 39.4 35.3001 39.2 35.0001 39.2C35.5001 38.9 35.8001 38.3 36.4001 38.3C37.4001 38.3 37.9001 38.1 38.2001 37.1C38.1001 37.1 38.0001 37.1 37.9001 37.2C37.9001 36.8 38.3001 36.3 38.7001 36.1C39.7001 35.9 39.6001 35.1 40.2001 34.4C40.0001 34.4 39.8001 34.5 39.6001 34.7C39.6001 34.1 39.5001 33.5 40.0001 33.1C41.0001 32.6 40.9001 32.4 40.7001 31.7M23.3001 31.7C23.1001 32.5 23.0001 32.7 23.8001 33.2C24.4001 33.6 24.2001 34.2 24.2001 34.8C24.0001 34.6 23.9001 34.5 23.6001 34.5C24.2001 35.1 24.1001 36 25.1001 36.2C25.4001 36.4 25.9001 36.9 25.9001 37.3C25.8001 37.3 25.7001 37.2 25.6001 37.2C25.9001 38.2 26.4001 38.4 27.4001 38.4C28.0001 38.4 28.3001 39 28.8001 39.3C28.5001 39.3 28.2001 39.4 28.1001 39.5C28.7001 39.5 29.2001 40.1 29.8001 40C30.5001 40 31.0001 39.2 31.8001 39.2C31.8001 38.8 31.1001 39.2 30.8001 39.2C30.0001 39 29.7001 38 28.6001 38.4C28.7001 38.5 28.8001 38.6 28.9001 38.6C28.7001 38.6 28.4001 38.5 28.2001 38.7C28.1001 38.5 27.9001 38.3 27.7001 38.2C27.5001 38 27.5001 37.7 27.4001 37.5C27.2001 37 26.5001 36.9 26.5001 36.4C26.4001 36.6 26.4001 36.9 26.5001 37.1C25.9001 36.6 25.4001 36.8 25.4001 35.9C25.4001 35.1 25.6001 34.5 24.6001 34.1V34.4C24.3001 34.1 24.1001 33.9 24.1001 33.4C24.1001 33 24.5001 32.7 24.4001 32.3C24.4001 32 24.3001 31.8 24.5001 31.5C24.2001 31.6 24.1001 31.9 24.0001 32.2C24.0001 31.8 23.9001 31.4 23.6001 31.1C23.5001 31.3 23.4001 31.6 23.3001 31.9C23.4001 31.7 23.3001 31.4 23.3001 31.7" fill="#75A843"/>
<path d="M34.6999 37.7001C34.4999 37.7001 34.3999 37.5001 34.2999 37.4001C34.2999 37.2001 35.0999 37 35.1999 37V36.8C33.8999 37.2 29.9999 37.5 29.1999 36.1C28.7999 36.7 28.0999 36.3 27.3999 35.8C27.4999 36 27.8999 37.0001 27.8999 36.9001C28.0999 37.0001 29.3999 37.3 29.3999 37.6L29.0999 37.9001C31.1999 38.6001 32.4999 38.8001 34.6999 37.7001Z" fill="#428BC1"/>
<path d="M33.4 37.7C33.5 37.6 33.5 37.5 33.5 37.3L33.4 37C33.6 36.8 33.4 36.3 33.1 36.4C32.9 36.5 33 36.5 32.8 36.4C32.7 36.4 32.7 36.3 32.6 36.3H30.8C30.6 36.3 30.6 36.2 30.4 36.2C30.2 36.1 30.1 36.3 30 36.4C30 36.6 30.1 36.6 30.1 36.7C30.1 36.8 30 36.9 30 37.1C30 37.3 30.1 37.4 30.2 37.5C29.8 37.8 30.2 38.3 30.6 38C30.7 38.2 31 38.2 31.3 38.2H32.4C32.6 38.2 33 38.3 33.1 38C33.4 38.5 33.8 37.9 33.4 37.7Z" fill="#ED4C5C"/>
<path d="M36.5998 35.1C35.7998 34.1 35.3998 35.6 34.4998 35.5C34.6998 34.3 32.8998 34.7 32.3998 35C32.4998 34.9 32.5998 34.7 32.6998 34.5C32.2998 34.5 31.7998 34.7 31.4998 34.4C30.8998 34 30.0998 33.8 29.5998 34.5C29.1998 33.9 28.0998 33.3 27.4998 33.9C27.4998 33.3 26.8998 32.4 26.1998 32.5C25.3998 32.6 25.6998 33.6 26.0998 34C26.3998 34.3 26.7998 34.4 27.1998 34.4C27.1998 34.6 27.2998 34.7 27.3998 34.8C27.8998 35.2 28.8998 35.3 29.3998 34.9C29.3998 35.9 31.3998 35.9 31.8998 35.4C31.6998 35.9 31.4998 36.9 32.1998 36.9C32.7998 36.9 32.5998 36.3 33.0998 36.1C33.4998 35.9 33.9998 35.8 34.3998 36C35.0998 36.4 37.2998 36.3 36.5998 35.1" fill="#428BC1"/>
<path d="M28.4001 32.6C28.3001 32.4 28.1001 32.2 28.1001 32.2C27.7001 32.3 27.7001 32 27.6001 31.7C27.5001 31.2 26.8001 31 26.8001 30.6C26.8001 30.2 27.2001 29.8 26.9001 29.4C26.6001 29 26.1001 28.8 26.1001 29C26.0001 29.2 26.5001 29.2 26.5001 29.7C26.5001 30.3 25.9001 30.8 26.6001 31.3C27.0001 31.9 27.0001 33 27.7001 33C28.0001 33 28.3001 32.9 28.4001 32.6" fill="#75A843"/>
<path d="M29.9 32.1C29.7 31.7 29.9 31.1 29.5 30.8C29 30.4 28 31.2 27.9 30.2C27.9 30 29 28.8 29.2 28.7C29.5 28.3 29.4 27.6 29.1 27.4C28.7 27.2 28.6 27.4 28.3 27.8C28.4 27.9 28.8 28.1 28.8 28.2C28.5 28.9 27.6 29 27.4 29.7C27.2 30.2 27.3 31 27.8 31.3C28.1 31.5 28.3 31.5 28.6 31.5C29.5 31.4 29 31.6 29.1 31.8C29.1 32 29.4 32.7 29.9 32.1M26.9 27.2C26.9 27.8 27.5 27.7 27.9 27.6C27.9 27.4 27.9 27.2 28 27C27.8 27.1 27.5 27.1 27.4 27C27.1 26.8 28.1 26.4 28 26.4C28 26.4 27 26.9 27.4 26.3C27.5 26.1 27.7 25.9 27.8 25.7C27.9 25.5 27.5 25.7 27.5 25.7C27.4 25.7 27.3 25.7 27.2 25.8C26.6 26.3 26.8 26.6 26.9 27.2" fill="#75A843"/>
<path d="M37.5002 27.2C37.0002 26.5 35.1002 24.2 32.4002 24C32.1002 24 31.3002 24.3 31.0002 24.4C30.1002 25 32.0002 25.5 32.1002 25.9C32.1002 26.1 32.2002 26.2 32.2002 26.4C31.9002 25.9 31.6002 25.6 31.5002 25.4C31.0002 25.6 30.2002 25.3 30.1002 24.8C30.0002 25 30.0002 25.1 29.8002 25.3C29.8002 25 29.7002 25 29.6002 24.8C29.6002 25.1 29.6002 25.5 29.3002 25.6C29.4002 25.4 29.3002 25.2 29.2002 25C29.2002 25.3 29.2002 25.5 29.0002 25.7C29.1002 25.5 28.9002 25.4 28.9002 25.2C28.8002 26 27.7002 26.3 28.8002 26.6C29.2002 26.7 29.4002 26.6 29.8002 26.8C29.9002 26.9 30.1002 27.1 30.1002 27C30.1002 27.1 29.7002 27.5 30.0002 27.6C29.9002 27.7 29.6002 28.3 29.6002 28.3C29.9002 28.3 29.7002 28.5 29.5002 28.7C29.2002 29.2 29.5002 29.7 29.6002 30.3C29.6002 30.1 29.9002 30.4 29.9002 30.7C29.9002 31.1 30.3002 31.3 30.4002 31.6C29.9002 31.1 29.8002 31.6 30.4002 31.9C29.9002 31.9 29.8002 32.2 30.3002 32.4C29.1002 32.4 30.1002 32.9 30.3002 33C31.1002 33.2 31.7002 32.6 31.7002 32.5C31.7002 32.5 33.3002 34.1 33.4002 34.1C33.5002 34.1 34.3002 33.7 34.5002 33.9C34.7002 34.2 34.9002 33.9 35.1002 34C35.3002 34.2 36.1002 34 36.3002 33.9C36.4002 33.9 37.4002 33.7 37.2002 33.5C36.7002 33.1 36.1002 32.7 35.6002 32.3C35.1002 31.9 34.6002 31.6 34.2002 31.2C34.0002 31 34.0002 30.6 33.9002 30.3C34.8002 31.2 35.7002 31.7 35.6002 30C36.2002 30.5 37.4002 33.3 37.5002 33.3C37.8002 33.3 37.5002 30.3 37.5002 30C37.9002 30.4 37.9002 33.7 38.0002 33.7C38.5002 33.8 39.2002 29.4 37.5002 27.2" fill="#89664C"/>
<path d="M30.2998 32.3C30.1998 32.3 29.6998 31.6 29.6998 31.5C29.9998 32.7 28.7998 32 29.0998 31.5C28.6998 31.4 27.6998 32 28.0998 32.6C27.8998 33 29.4998 32.7 29.5998 32.5C29.9998 33.4 30.9998 32.4 30.2998 32.3M34.9998 35.3C35.4998 34.6 33.3998 34.4 33.5998 33.6C33.2998 33.8 32.8998 34.5 32.4998 34.3C32.2998 34.2 31.4998 34.7 31.8998 35C31.8998 34.6 32.0998 34.9 32.3998 34.8C32.2998 35.1 31.9998 35.4 32.4998 35.6C32.2998 35 33.0998 35.3 32.9998 35C32.7998 34.8 33.6998 34.8 33.7998 34.8C34.0998 34.8 35.0998 35.1 34.6998 35.4C34.6998 35.4 34.8998 35.4 34.9998 35.3M28.2998 26.7C28.1998 26.9 27.7998 27.2 27.7998 27.5C27.7998 27.7 28.2998 28.2 28.4998 27.9C27.8998 27.5 28.5998 27.2 28.8998 27.2C28.9998 27.2 28.9998 27.4 28.9998 27.4C29.0998 27.5 29.8998 27.2 29.7998 27C29.8998 26.6 28.5998 26.6 28.2998 26.7Z" fill="#FFCE31"/>
</svg>
